# xmcd CD database file
#
# Track frame offsets:
#	150
#	10867
#	20173
#	35375
#	42766
#	53083
#	63435
#	74406
#	84529
#	97748
#	108030
#	121758
#	137123
#	145300
#	159991
#	170564
#
# Disc length: 2418 seconds
#
# Revision: 1
# Processed by: cddbd v1.5PL3 Copyright (c) Steve Scherf et al.
# Submitted via: CDex 1.50
#
DISCID=cc097010
DTITLE=Fats Domino - Rock Right Now With The Fat Man  CD1
DYEAR=2001
DGENRE=Blues
TTITLE0=Blueberry Hill
TTITLE1=Hello Josephine
TTITLE2=Whiskey Heaven
TTITLE3=Whole Lotta Lovin'
TTITLE4=Blue Monday
TTITLE5=I Want To Walk You Home
TTITLE6=Ain't That A Shame
TTITLE7=Be My Guest
TTITLE8=My Girl Josephine
TTITLE9=Let The Four Winds Blow
TTITLE10=My Blue Heaven
TTITLE11=When The Saints Go Marching In
TTITLE12=Sheik Of Araby
TTITLE13=Oh What A Price
TTITLE14=The Fat Man
TTITLE15=I'm Gonna Be A Wheel Some Day
EXTD=YEAR: 2001
EXTT0=
EXTT1=
EXTT2=
EXTT3=
EXTT4=
EXTT5=
EXTT6=
EXTT7=
EXTT8=
EXTT9=
EXTT10=
EXTT11=
EXTT12=
EXTT13=
EXTT14=
EXTT15=
PLAYORDER=
